<mxfile host="app.diagrams.net" agent="Mozilla/5.0 (Windows NT 10.0; Win64; x64) AppleWebKit/537.36 (KHTML, like Gecko) Chrome/128.0.0.0 Safari/537.36" version="24.7.10">
  <diagram name="Page-1" id="e_8FOTeCMmCdOmxx7v-l">
    <mxGraphModel dx="999" dy="581" grid="1" gridSize="10" guides="1" tooltips="1" connect="1" arrows="1" fold="1" page="1" pageScale="1" pageWidth="850" pageHeight="1100" math="0" shadow="0">
      <root>
        <mxCell id="0" />
        <mxCell id="1" parent="0" />
        <mxCell id="tfvw7VEGsT7CNACXARBv-30" style="edgeStyle=orthogonalEdgeStyle;rounded=0;orthogonalLoop=1;jettySize=auto;html=1;exitX=1;exitY=1;exitDx=0;exitDy=0;curved=1;entryX=0;entryY=0;entryDx=0;entryDy=0;" edge="1" parent="1" source="tfvw7VEGsT7CNACXARBv-1" target="tfvw7VEGsT7CNACXARBv-5">
          <mxGeometry relative="1" as="geometry">
            <mxPoint x="320" y="320" as="targetPoint" />
            <Array as="points">
              <mxPoint x="280" y="330" />
            </Array>
          </mxGeometry>
        </mxCell>
        <mxCell id="tfvw7VEGsT7CNACXARBv-1" value="Software&lt;div&gt;Engineer&lt;/div&gt;" style="image;html=1;image=img/lib/clip_art/people/Worker_Woman_128x128.png;labelPosition=center;verticalLabelPosition=bottom;align=center;verticalAlign=top;" vertex="1" parent="1">
          <mxGeometry x="200" y="160" width="80" height="80" as="geometry" />
        </mxCell>
        <mxCell id="tfvw7VEGsT7CNACXARBv-32" style="edgeStyle=orthogonalEdgeStyle;rounded=0;orthogonalLoop=1;jettySize=auto;html=1;exitX=0;exitY=1;exitDx=0;exitDy=0;curved=1;entryX=0.75;entryY=0;entryDx=0;entryDy=0;" edge="1" parent="1" source="tfvw7VEGsT7CNACXARBv-4" target="tfvw7VEGsT7CNACXARBv-5">
          <mxGeometry relative="1" as="geometry">
            <mxPoint x="400" y="320" as="targetPoint" />
            <Array as="points">
              <mxPoint x="440" y="330" />
            </Array>
          </mxGeometry>
        </mxCell>
        <mxCell id="tfvw7VEGsT7CNACXARBv-4" value="Software&lt;div&gt;Architect&lt;/div&gt;" style="image;html=1;image=img/lib/clip_art/people/Suit_Woman_128x128.png" vertex="1" parent="1">
          <mxGeometry x="440" y="160" width="80" height="80" as="geometry" />
        </mxCell>
        <mxCell id="tfvw7VEGsT7CNACXARBv-22" value="" style="edgeStyle=orthogonalEdgeStyle;rounded=0;orthogonalLoop=1;jettySize=auto;html=1;exitX=1;exitY=0.5;exitDx=0;exitDy=0;entryX=0.25;entryY=0;entryDx=0;entryDy=0;curved=1;labelPosition=right;verticalLabelPosition=middle;align=right;verticalAlign=middle;" edge="1" parent="1" source="tfvw7VEGsT7CNACXARBv-5" target="tfvw7VEGsT7CNACXARBv-15">
          <mxGeometry x="0.1429" y="11" relative="1" as="geometry">
            <mxPoint x="-1" y="-5" as="offset" />
          </mxGeometry>
        </mxCell>
        <mxCell id="tfvw7VEGsT7CNACXARBv-5" value="Previous&lt;div&gt;Design Decisions&lt;/div&gt;" style="image;html=1;image=img/lib/clip_art/general/Full_Folder_128x128.png" vertex="1" parent="1">
          <mxGeometry x="330" y="330" width="70" height="70" as="geometry" />
        </mxCell>
        <mxCell id="tfvw7VEGsT7CNACXARBv-6" value="" style="shape=flexArrow;endArrow=classic;html=1;rounded=0;labelPosition=right;verticalLabelPosition=top;align=left;verticalAlign=bottom;exitX=1;exitY=0.75;exitDx=0;exitDy=0;entryX=0;entryY=0.75;entryDx=0;entryDy=0;" edge="1" parent="1" source="tfvw7VEGsT7CNACXARBv-1" target="tfvw7VEGsT7CNACXARBv-4">
          <mxGeometry width="50" height="50" relative="1" as="geometry">
            <mxPoint x="240" y="240" as="sourcePoint" />
            <mxPoint x="240" y="400" as="targetPoint" />
          </mxGeometry>
        </mxCell>
        <mxCell id="tfvw7VEGsT7CNACXARBv-7" value="&lt;font style=&quot;font-size: 12px;&quot;&gt;Learns about&lt;/font&gt;&lt;div style=&quot;font-size: 12px;&quot;&gt;&lt;font style=&quot;font-size: 12px;&quot;&gt;Software Architecture&lt;/font&gt;&lt;div&gt;&lt;font style=&quot;font-size: 12px;&quot;&gt;and ADD&lt;/font&gt;&lt;/div&gt;&lt;/div&gt;" style="edgeLabel;html=1;align=center;verticalAlign=middle;resizable=0;points=[];" vertex="1" connectable="0" parent="tfvw7VEGsT7CNACXARBv-6">
          <mxGeometry x="-0.2125" relative="1" as="geometry">
            <mxPoint x="17" y="-30" as="offset" />
          </mxGeometry>
        </mxCell>
        <mxCell id="tfvw7VEGsT7CNACXARBv-13" value="" style="image;html=1;image=img/lib/clip_art/people/Worker_Woman_128x128.png" vertex="1" parent="1">
          <mxGeometry x="200" y="410" width="80" height="80" as="geometry" />
        </mxCell>
        <mxCell id="tfvw7VEGsT7CNACXARBv-14" value="Takes&lt;div&gt;ADD&lt;/div&gt;" style="verticalLabelPosition=top;verticalAlign=bottom;html=1;shape=mxgraph.basic.tick;labelPosition=center;align=center;" vertex="1" parent="1">
          <mxGeometry x="220" y="520" width="40" height="40" as="geometry" />
        </mxCell>
        <mxCell id="tfvw7VEGsT7CNACXARBv-15" value="" style="image;html=1;image=img/lib/clip_art/people/Suit_Woman_128x128.png" vertex="1" parent="1">
          <mxGeometry x="440" y="410" width="80" height="80" as="geometry" />
        </mxCell>
        <mxCell id="tfvw7VEGsT7CNACXARBv-16" value="Takes much Better&lt;div&gt;ADD&lt;/div&gt;" style="verticalLabelPosition=top;verticalAlign=bottom;html=1;shape=mxgraph.basic.tick;labelPosition=center;align=center;fillColor=#67AB9F;strokeColor=#82b366;" vertex="1" parent="1">
          <mxGeometry x="460" y="520" width="40" height="40" as="geometry" />
        </mxCell>
        <mxCell id="tfvw7VEGsT7CNACXARBv-21" value="" style="edgeStyle=orthogonalEdgeStyle;rounded=0;orthogonalLoop=1;jettySize=auto;html=1;exitX=-0.038;exitY=0.505;exitDx=0;exitDy=0;entryX=0.75;entryY=0.125;entryDx=0;entryDy=0;entryPerimeter=0;curved=1;exitPerimeter=0;labelPosition=left;verticalLabelPosition=middle;align=center;verticalAlign=middle;" edge="1" parent="1" source="tfvw7VEGsT7CNACXARBv-5" target="tfvw7VEGsT7CNACXARBv-13">
          <mxGeometry relative="1" as="geometry" />
        </mxCell>
        <mxCell id="tfvw7VEGsT7CNACXARBv-23" value="Needs&lt;div&gt;to take&lt;div&gt;a&amp;nbsp;&lt;span style=&quot;background-color: initial;&quot;&gt;ADD&lt;/span&gt;&lt;/div&gt;&lt;/div&gt;" style="sketch=0;outlineConnect=0;fontColor=#232F3E;gradientColor=none;fillColor=#232F3D;strokeColor=none;dashed=0;verticalLabelPosition=middle;verticalAlign=middle;align=left;html=1;fontSize=12;fontStyle=0;aspect=fixed;pointerEvents=1;shape=mxgraph.aws4.question;labelPosition=right;" vertex="1" parent="1">
          <mxGeometry x="229.5" y="120.05000000000001" width="21" height="39.95" as="geometry" />
        </mxCell>
        <mxCell id="tfvw7VEGsT7CNACXARBv-25" value="&lt;font style=&quot;font-size: 11px;&quot;&gt;Searches&lt;/font&gt;&lt;div style=&quot;font-size: 11px;&quot;&gt;&lt;font style=&quot;font-size: 11px;&quot;&gt;for ADD&lt;/font&gt;&lt;/div&gt;" style="text;html=1;align=center;verticalAlign=middle;resizable=0;points=[];autosize=1;strokeColor=none;fillColor=none;" vertex="1" parent="1">
          <mxGeometry x="280" y="270" width="70" height="40" as="geometry" />
        </mxCell>
        <mxCell id="tfvw7VEGsT7CNACXARBv-26" value="&lt;font style=&quot;font-size: 11px;&quot;&gt;Retrieves&lt;/font&gt;&lt;div style=&quot;font-size: 11px;&quot;&gt;&lt;font style=&quot;font-size: 11px;&quot;&gt;Previous&lt;/font&gt;&lt;/div&gt;&lt;div style=&quot;font-size: 11px;&quot;&gt;&lt;font style=&quot;font-size: 11px;&quot;&gt;ADD&lt;/font&gt;&lt;/div&gt;" style="text;html=1;align=center;verticalAlign=middle;resizable=0;points=[];autosize=1;strokeColor=none;fillColor=none;" vertex="1" parent="1">
          <mxGeometry x="440" y="340" width="70" height="50" as="geometry" />
        </mxCell>
        <mxCell id="tfvw7VEGsT7CNACXARBv-28" value="&lt;font style=&quot;font-size: 11px;&quot;&gt;Retrieves&lt;/font&gt;&lt;div style=&quot;font-size: 11px;&quot;&gt;&lt;font style=&quot;font-size: 11px;&quot;&gt;Previous&lt;/font&gt;&lt;/div&gt;&lt;div style=&quot;font-size: 11px;&quot;&gt;&lt;font style=&quot;font-size: 11px;&quot;&gt;ADD&lt;/font&gt;&lt;/div&gt;" style="text;html=1;align=center;verticalAlign=middle;resizable=0;points=[];autosize=1;strokeColor=none;fillColor=none;" vertex="1" parent="1">
          <mxGeometry x="210" y="345" width="70" height="50" as="geometry" />
        </mxCell>
        <mxCell id="tfvw7VEGsT7CNACXARBv-33" value="&lt;font style=&quot;font-size: 11px;&quot;&gt;Searches&lt;/font&gt;&lt;div style=&quot;font-size: 11px;&quot;&gt;&lt;font style=&quot;font-size: 11px;&quot;&gt;for ADD&lt;/font&gt;&lt;/div&gt;" style="text;html=1;align=center;verticalAlign=middle;resizable=0;points=[];autosize=1;strokeColor=none;fillColor=none;" vertex="1" parent="1">
          <mxGeometry x="370" y="270" width="70" height="40" as="geometry" />
        </mxCell>
        <mxCell id="tfvw7VEGsT7CNACXARBv-35" value="&lt;div style=&quot;font-size: 11px;&quot;&gt;&lt;span style=&quot;text-wrap: nowrap;&quot;&gt;&lt;font style=&quot;font-size: 11px;&quot;&gt;ADD = Architecture&lt;/font&gt;&lt;/span&gt;&lt;div style=&quot;text-wrap: nowrap;&quot;&gt;&lt;font style=&quot;font-size: 11px;&quot;&gt;Design Decision&lt;/font&gt;&lt;/div&gt;&lt;/div&gt;" style="rounded=0;whiteSpace=wrap;html=1;" vertex="1" parent="1">
          <mxGeometry x="420" y="110" width="100" height="30" as="geometry" />
        </mxCell>
      </root>
    </mxGraphModel>
  </diagram>
</mxfile>
